<svg xmlns="http://www.w3.org/2000/svg" data-name="Warstwa 1" viewBox="0 0 100 125" x="0px" y="0px"><title>hand_credit card</title><path d="M83.24,42l-5.6-11.19L73.1,28H67V23.17L63.83,20H9.17L6,23.17V66.83L9.17,70H26v6.83L29.17,80H73.83L85.71,68H94V42ZM10,65.17V24.83l.83-.83H62.17l.83.83V28H45.17L42,31.17v5.66L47.17,42H60.7L64,49.42V65.17l-.83.83H10.83ZM90,64H84L72.17,76H30.83L30,75.17V70H64.83L68,66.83V48.58L63.3,38H48.83L46,35.17V32.83l.83-.83H72l2.61,1.61L80.76,46H90Z"/><rect x="16" y="56" width="42" height="4"/><rect x="16" y="48" width="6" height="4"/><rect x="26" y="48" width="6" height="4"/><rect x="36" y="48" width="6" height="4"/><text x="0" y="115" fill="#000000" font-size="5px" font-weight="bold" font-family="'Helvetica Neue', Helvetica, Arial-Unicode, Arial, Sans-serif">Created by Maciej Świerczek</text><text x="0" y="120" fill="#000000" font-size="5px" font-weight="bold" font-family="'Helvetica Neue', Helvetica, Arial-Unicode, Arial, Sans-serif">from the Noun Project</text></svg>